<svg id="Capa_1" data-name="Capa 1" xmlns="http://www.w3.org/2000/svg" viewBox="0 0 500 549"><defs><style>.cls-1{fill:none;}.cls-2{fill:#e8e8e9;}.cls-3{fill:#572b80;}.cls-4{fill:#55277e;}.cls-5{fill:#c0c4c7;}.cls-6{fill:#fefefe;}.cls-7{fill:#abc41f;}</style></defs><path class="cls-1" d="M6.44,257.11Q6.44,134,6.35,11c0-3.28.44-4.19,4-4.19q245.85.18,491.71,0c3.74,0,4.28.94,4.28,4.41q-.16,247.38,0,491.77c0,3.41-.44,4.44-4.25,4.44q-245.85-.2-491.71,0c-3.52,0-4-.84-4-4.16Q6.52,380.17,6.44,257.11Zm172.8,112.06H168.8c-1.48,0-3.11.22-3.39-1.91,1.78-6.14.15-8.44-6.13-8.64h-2.49c-12.93,0-16.4-4.54-16.4-17.7q0-90.54-.1-181.11c0-4.47,1-5.76,5.65-5.76,93.78.15,187.56,1.19,281.35,1.12a20.85,20.85,0,0,0,2.5,0c2.69-.32,3.56.94,3.36,3.48-.15,2,0,4,0,6V343.77c0,10.64-4.24,14.87-14.76,14.87H316.94a23,23,0,0,0-5.44.46c-2.43.57-3.37,2.44-3.37,4.88a4.63,4.63,0,0,0,3.45,4.91,14.13,14.13,0,0,0,4,.28H419.52c13.81,0,22.83-9,22.83-22.84V118.69c0-13.89-8.89-22.74-22.74-22.74H154.18c-14.26,0-22.87,8.63-23,23q-.1,18.49-.18,37a25.68,25.68,0,0,0-3.78,1.12c-21.75,10.24-41,23.77-56.18,42.72-23.68,29.57-32.39,62.53-23,99.72,7.6,30.17,26.08,52.52,50.43,70.68,17,12.65,36.18,20.77,55.92,27.76,3.08,1.09,7,3.56,9.63,2.55,5.76-2.22,11.46-1.2,17.11-1.15,4.15,0,6.45-1,7-5.14,2.18,4,3.43,7.82-.7,11.56A6.15,6.15,0,0,0,186,410c0,8.39-1.78,15.94,2.28,24.42H92.15a24.25,24.25,0,0,0-4,.09,4,4,0,0,0-3.78,4.22l0,.26a4,4,0,0,0,3.94,4.26c1.16.11,2.33,0,3.5,0H419.17c2.55-.15,4-1.52,4.11-4.08.15-2.83-1.32-4.39-4-4.72a33.36,33.36,0,0,0-4,0H285.85c-1.75,0-3.59.47-5.17-.38a45.4,45.4,0,0,0,.57-27c-1.25-4.28-1.13-6.9,1.24-10.15,7.18-9.83,12.47-20.45,13.34-32.86s.17-24.67.41-37c.06-3.35.37-6.85-1-9.9-2.14-4.89.26-4.86,4-4.85,27.31.12,54.63.07,81.95.06,13.24,0,22.11-8.85,22.23-22.25.07-8,0-16,0-24,0-3.24-.28-6.5-4.24-6.63-4.12-.13-5,3-5,6.56.06,7.34,0,14.68,0,22-.05,9.5-4.65,14.12-14.07,14.12H285.27c-7.75,0-7.75,0-7.75-7.94,0-7.7,0-7.69,7.33-8.24.83-.07,1.65-.23,2.47-.38,18-3.32,29.33-22.53,24.55-41.49-4.7-18.57-22.28-29.17-39.21-22.6-1.91.73-3.12,0-4.63-.63-8-3.45-16.28-.44-20.26,7.32a23.9,23.9,0,0,0-2.27,11.16v37.52c0,2.3,0,3.63-3.16,3.14-8.69-1.36-14.39,1.92-17.79,10.07-.93,2.23-1.48,2.88-4.16,2.27-6.5-1.48-12.36.2-16.15,6.08-1.57,2.43-3,2.33-5.23,1.4a11.7,11.7,0,0,0-9.72,0c-3.61,1.82-5.61.14-7.52-2.4a13.52,13.52,0,0,1-2.58-8.44c0-24.18-.05-48.37,0-72.55,0-8.42,5-13.2,13.52-13.2h187.9c8.64,0,13.51,4.92,13.59,13.69.07,7.67,0,15.34,0,23,0,3.37.93,6.21,4.89,6.07,3.68-.13,4.34-2.9,4.31-6-.06-8.17.05-16.35,0-24.52-.14-13.49-9.2-22.4-22.69-22.4-62.47,0-124.94.24-187.4-.2-14.13-.09-23.63,10.58-23.58,23.38.09,24.35,0,48.7,0,73.09a23.57,23.57,0,0,0,7.42,17.92c1,1,2.18,1.7,2,3.66A340.24,340.24,0,0,0,179.24,369.17ZM84.42,84c9.32,0,18.65-.06,28,0,3.12,0,4.78-.66,5.2-4.3,1.34-11.43,6.9-20.73,15.7-28,6.58-5.41,13.7-10.42,22.8-9.42,15.77,1.62,27.56,9.16,33.57,24.4C191,70,192.92,71.12,196.6,70c11.09-3.36,19.87-.07,26.25,9.71,1.66,2.55,3.72,4.4,7.29,4.36,15.15-.16,30.3-.1,45.45,0,3.56,0,5.75-1.08,5.78-5.08,0-4.44-3-4-5.88-4-13.16,0-26.31-.07-39.46,0a10.15,10.15,0,0,1-8.94-4.25c-5.5-7-12.8-11.27-22-10.69-5.87.38-9.4-1.8-12.67-6.66C178.78,33,152.68,26.87,131.35,41.56a52.77,52.77,0,0,0-20.11,26.69c-1.72,4.85-4.4,7-9.94,6.84-15-.43-30-.12-44.95-.21-3.13,0-5,.61-5.07,4.36S53,84.09,56.44,84C65.77,83.88,75.09,84,84.42,84ZM329.76,252.07c0,8.65-.05,17.32,0,26,.05,6.64,1.36,7.92,7.82,7.93,4.16,0,8.32-.08,12.47,0,8.34.21,14.54-3.37,18.07-10.85,3.8-8,3.12-16-2.58-22.92-2.15-2.62-2.67-4.32-1.28-7.53,4.94-11.35-2.78-26.16-16.86-25.23-3.48.23-7,0-10.47,0-5.58.06-7.08,1.45-7.15,7.1C329.68,235.09,329.76,243.58,329.76,252.07Zm-99.41-3.18h.13c0-7.66.06-15.32,0-23,0-2.71-1-5.07-4.29-4.93-3,.13-3.75,2.33-3.88,4.86-.07,1.49-.08,3-.08,4.5v37c0,2.73-.13,5.42-2.91,6.93s-4.22-.73-6.08-2c-3-2.15-6-.95-6.7,2.67-.54,2.6.68,4.59,2.48,6.18,3.55,3.15,7.59,4.93,12.35,3.06,5.73-2.24,8.61-6.9,8.91-12.74C230.65,263.9,230.35,256.39,230.35,248.89ZM45.42,115.94c-7.31,0-14.63.06-21.94,0-3.11,0-5,.63-5.11,4.35s1.72,4.8,5.19,4.78c14.63-.12,29.26-.09,43.89,0,3.09,0,5.07-.51,5.09-4.31s-1.68-4.88-5.17-4.81C60.06,116,52.74,115.94,45.42,115.94ZM450.57,443.42c3.82,0,7.65-.1,11.46,0,2.89.09,4.28-.71,4-4-.24-2.73.4-5.38-3.83-5.28-7.79.18-15.6.14-23.39,0-3.36-.05-4.35,1.64-4.38,4.6s.74,4.81,4.2,4.66C442.6,443.29,446.59,443.42,450.57,443.42Zm-386.4.37c1.32,0,2.65.08,4,0,5.11-.39,6.55-3.19,4-7.63-1.22-2.1-13.74-2.9-15.18-.92a4.67,4.67,0,0,0-.52,1.85C55.35,443.05,56.18,443.81,64.17,443.79Zm420.26,0a15.39,15.39,0,0,0,2.88,0c2.68-.64,7,1.21,6.73-4.11-.26-4.51-2.38-5.94-7.47-5.42a36,36,0,0,1-4,.37c-4.89-.09-6.8,2.07-5.41,6.66,1.32,4.2,5.1,1.74,7.27,2.52ZM94.35,120.31c-.26,3.68.46,6.09,5,5a11.18,11.18,0,0,1,5.42.11c3.39.9,5.19-.24,5.55-3.61s-.7-5.62-4.48-5.69c-2.49,0-5,.05-7.48,0C95.35,116,94.18,117.53,94.35,120.31ZM341.72,74.9h-2.5c-3.15-.26-5.9.23-5.73,4.22.16,3.69,2.4,5.21,6.05,4.86A41.91,41.91,0,0,1,345,84c3.19.12,5.16-1.15,5.2-4.54s-1.66-4.84-5-4.5A31.59,31.59,0,0,1,341.72,74.9ZM312,74.9c-1.49,0-3,.08-4.48,0-3.82-.24-4.48,2-4.16,5.11.28,2.55,1.86,4.2,4.3,3.85,3.85-.57,8.33,2.1,11.49-2.08.18-.24.12-.64.18-1,.86-4.82-.45-5.88-7.33-5.88Z"/><path class="cls-2" d="M181.81,413.59c-.55,4.16-2.85,4.16-7,4.13-5.65-.05-11.35-1.06-17.11,1.15-2.64,1-6.55-.46-9.63-1.54-19.74-7-39-15.1-55.92-27.73C67.8,371.46,49.32,349.14,41.72,319c-9.37-37.15-.66-70.07,23-99.6C79.9,200.47,99.15,187,120.9,176.73a24.82,24.82,0,0,1,3.78-1.11c.08,1.32.23,2.65.23,4V356.23c0,3.83-.33,7.69.09,11.47,1.88,16.74,17.45,25.17,34,19,.28,2.13,1.91,1.91,3.39,1.91h10.44C175,397.2,178.88,405.22,181.81,413.59Z"/><path class="cls-3" d="M181.81,413.59c-2.93-8.37-6.83-16.39-8.92-25a341.41,341.41,0,0,1,0-58.26c.18-2-1-2.67-2-3.65-5.15-4.87-7.42-10.9-7.42-17.9,0-24.31.07-48.63,0-73-.05-12.78,9.45-23.44,23.58-23.35,62.46.44,124.93.19,187.4.2,13.49,0,22.55,8.9,22.69,22.37.08,8.16,0,16.33,0,24.49,0,3.15-.63,5.91-4.31,6-4,.14-4.9-2.69-4.89-6.06,0-7.66.06-15.32,0-23-.08-8.76-4.95-13.67-13.59-13.67H186.45c-8.49,0-13.49,4.77-13.52,13.18-.1,24.15,0,48.31,0,72.46a13.54,13.54,0,0,0,2.58,8.43c1.91,2.54,3.91,4.21,7.52,2.4a11.7,11.7,0,0,1,9.72,0c2.25.93,3.66,1,5.23-1.4,3.79-5.87,9.65-7.55,16.15-6.07,2.68.61,3.23,0,4.16-2.27,3.4-8.14,9.1-11.42,17.79-10.06,3.15.49,3.17-.84,3.16-3.13-.06-12.49,0-25,0-37.48a23.94,23.94,0,0,1,2.27-11.14c4-7.75,12.26-10.76,20.26-7.32,1.51.65,2.72,1.36,4.63.63,16.93-6.56,34.51,4,39.21,22.58,4.78,18.93-6.59,38.12-24.55,41.43-.82.15-1.64.31-2.47.38-7.33.55-7.33.54-7.33,8.23,0,7.93,0,7.93,7.75,7.93H374c9.42,0,14-4.61,14.07-14.1,0-7.33.05-14.66,0-22,0-3.55.86-6.68,5-6.55s4.27,3.38,4.24,6.62c-.08,8,0,16,0,24-.12,13.38-9,22.22-22.23,22.22-27.32,0-54.64.06-82-.06-3.78,0-6.18,0-4,4.85,1.33,3,1,6.54,1,9.88-.24,12.31.46,24.64-.41,37s-6.16,22-13.34,31.82c-2.37,3.24-2.49,5.86-1.24,10.13a48.47,48.47,0,0,1-.57,27.95c1.58.85,3.42.38,5.17.38H409.13a33.36,33.36,0,0,1,4,0c2.72.33,4.19,1.89,4,4.71-.14,2.56-1.56,3.93-4.11,4.08-1.16.07-2.33,0-3.5,0H85.5c-1.17,0-2.34.08-3.5,0-2.55-.24-3.86-1.7-3.94-4.26a4,4,0,0,1,3.5-4.45l.25,0a24.3,24.3,0,0,1,4-.09H182c-4.06-8.47-2.28-17-2.28-25.39a6.17,6.17,0,0,1,1.4-4.16C185.24,420.4,184,417.57,181.81,413.59Zm80-118.9V259.21c0-2,.07-4-.86-5.87-1.31-2.59-3.29-4.22-6.32-3.94-3.28.31-5,2.46-5.64,5.48a22.37,22.37,0,0,0-.15,4.48v55.46c0,3.2-.57,6.26-4.41,6.7-3.69.43-4.85-2.3-5.23-5.34-.54-4.21-2.5-7.1-7-6.59s-5.87,3.88-6,7.92.08,8-.14,12c-.16,2.65-1.77,4.24-4.58,4.26-2.59,0-3.94-1.48-4.47-3.85-.18-.81-.06-1.69-.28-2.47-1-3.29-2.76-5.95-6.53-5.74s-5.89,2.8-6.27,6.55c-.19,2-.06,4-.06,6,0,3.22-.6,6.34-4.4,6.72s-5-2.56-5.31-5.81c-.41-3.86-2.62-6.4-6.4-6.34-4.09.05-6.42,3.14-6.46,7-.15,15-.4,30,.24,44.95.5,11.66,6.93,21.74,10.46,32.6,1.32,4.06,3.13,4.61,7.67,4.53,17.48-.34,35-.51,52.46,0,7.61.24,13.55.51,16.26-7.73.7-2.13,2.48-3.92,3.79-5.84,3.79-5.58,6.8-11.61,7.38-18.33,1.3-15.11.61-30.28.38-45.43-.08-5-5-7.46-9.4-5.32-6.36,3.09-8.68,1.64-8.71-5.56q0-17.55,0-35ZM227,453.21h29c7.83,0,11-3.16,11-10.84v-9c-.06-7.07-3.28-10.45-10.36-10.47q-30-.11-59.94,0c-6.79,0-9.8,2.84-10.26,9.56a96.6,96.6,0,0,0,0,10.49c.32,7.27,3.35,10.2,10.62,10.25C207,453.26,217,453.21,227,453.21Zm44-181.27h.19c0,6,.32,12-.11,17.93-.33,4.55,1.85,5.25,5.51,5.19,13.26-.22,23.24-14.25,19.92-28.12-2.71-11.28-12-18.48-22.18-17.39-2.59.27-3.64.93-3.45,4C271.25,259.63,271,265.79,271,271.94Z"/><path class="cls-4" d="M159.06,386.65c-16.58,6.2-32.15-2.23-34-19-.42-3.78-.09-7.64-.09-11.47V179.57c0-1.32-.15-2.65-.23-4q.09-18.48.18-37c.08-14.37,8.69-23,23-23l265.27,1c13.85,0,22.74,8.84,22.74,22.71V365.64c0,13.78-9,22.8-22.83,22.81H309.16a14.13,14.13,0,0,1-4-.28,4.61,4.61,0,0,1-3.45-4.9c0-2.44.94-4.31,3.37-4.88a23.63,23.63,0,0,1,5.44-.46H412c10.52,0,14.75-4.22,14.76-14.85V184.19c0-2-.12-4,0-6,.2-2.53-.67-3.79-3.36-3.47a20.85,20.85,0,0,1-2.5,0c-93.78,0-187.56-1-281.35-1.12-4.66,0-5.66,1.29-5.65,5.75q.23,90.45.1,180.89c0,13.14,3.47,17.66,16.4,17.67h2.49C159.21,378.22,160.84,380.52,159.06,386.65ZM280,164.66H420.44c1.17,0,2.34-.08,3.5,0,2.16.19,2.9-.69,2.87-2.87-.11-7.49.24-15-.16-22.48-.45-8.31-5.31-12.48-13.7-12.48l-265.4-1c-8.45,0-13.33,4.76-13.48,13.21-.12,6.5.24,13-.12,19.49-.23,4.09.83,5.24,5.09,5.22C186,163.6,233,164.66,280,164.66Z"/><path class="cls-5" d="M59.43,75.75c-9.33,0-18.65-.09-28,0-3.48,0-5.22-.91-5.16-4.79s2-4.36,5.07-4.34c15,.08,30-.22,45,.2,5.55.16,8.22-2,9.94-6.84a52.69,52.69,0,0,1,20.09-26.61c21.35-14.68,47.45-8.57,61.14,11.75,3.27,4.85,6.8,7,12.67,6.64,9.15-.58,16.45,3.66,21.95,10.69A10.15,10.15,0,0,0,211,66.73c13.15-.1,26.3,0,39.46,0,2.85,0,5.91-.41,5.88,4,0,4-2.22,5.09-5.78,5.07-15.15-.06-30.3-.12-45.45,0-3.57,0-5.63-1.79-7.29-4.35-6.38-9.76-15.16-13-26.25-9.7-3.68,1.11-5.59,0-6.91-3.39-6-15.23-17.8-22.76-33.57-24.37-9.1-.92-16.22,4-22.83,9.5-8.8,7.29-14.36,16.57-15.7,28-.42,3.64-2.08,4.32-5.2,4.28C78.08,75.66,68.75,75.75,59.43,75.75Z"/><path class="cls-3" d="M323.41,271.6c0-8.48-.08-17,0-25.44.07-5.65,1.57-7,7.15-7.09,3.49,0,7,.19,10.47,0,14.08-.93,21.8,13.86,16.86,25.2-1.39,3.2-.87,4.9,1.28,7.52,5.7,6.9,6.38,14.87,2.58,22.89-3.53,7.47-9.73,11-18.07,10.83-4.15-.1-8.31,0-12.47,0-6.46,0-7.77-1.28-7.82-7.92C323.36,288.89,323.41,280.24,323.41,271.6Zm17.14,23.3a42.91,42.91,0,0,0,6,0c4.79-.65,7.16-3.8,7.78-8.37s-1.76-9.46-5.65-10.56c-4.84-1.37-10.37-2-14.65-.11-2.73,1.18-.57,6.67-1,10.2a12.35,12.35,0,0,0,0,1.49C333,295,333,295,340.55,294.9ZM333,257.09c0,7.68,0,7.68,5.84,7.68,7.67,0,11-2.17,11.13-7.34.17-5.46-3.29-8-11.06-8C333,249.48,333,249.48,333,257.09Z"/><path class="cls-4" d="M224,268.42c0,7.49.3,15-.1,22.45-.3,5.84-3.18,10.49-8.91,12.73-4.76,1.86-8.8.09-12.35-3.06-1.8-1.59-3-3.58-2.48-6.17.75-3.62,3.67-4.82,6.7-2.67,1.86,1.31,3.37,3.5,6.08,2s2.91-4.2,2.91-6.92V249.84c0-1.5,0-3,.08-4.49.13-2.53.89-4.73,3.88-4.86,3.32-.14,4.26,2.22,4.29,4.93.09,7.66,0,15.31,0,23Z"/><path class="cls-5" d="M39.07,115.73c7.32,0,14.64.1,22,0,3.49-.07,5.19,1,5.17,4.81s-2,4.32-5.09,4.3c-14.63-.07-29.26-.1-43.89,0-3.47,0-5.25-.9-5.19-4.76s2-4.39,5.11-4.35C24.44,115.79,31.76,115.73,39.07,115.73Z"/><path class="cls-3" d="M444.22,462.71c-4,0-8-.13-12,0-3.46.15-4.22-1.76-4.2-4.65s1-4.65,4.38-4.6c7.79.13,15.6.17,23.39,0,4.23-.1,3.59,2.55,3.83,5.27.29,3.28-1.1,4.08-4,4C451.87,462.61,448,462.71,444.22,462.71Z"/><path class="cls-3" d="M57.82,463.08c-8,0-8.87-.74-7.76-6.71a4.79,4.79,0,0,1,.52-1.85c1.44-2,14-1.18,15.18.92,2.58,4.43,1.14,7.23-4,7.62C60.47,463.16,59.14,463.08,57.82,463.08Z"/><path class="cls-3" d="M478.08,463.1c-2.17-.78-5.95,1.68-7.22-2.53-1.39-4.58.52-6.74,5.41-6.65a35.82,35.82,0,0,0,4-.37c5.09-.52,7.21.91,7.47,5.41.3,5.32-4.05,3.47-6.73,4.11A14.34,14.34,0,0,1,478.08,463.1Z"/><path class="cls-5" d="M88,119.69c-.2-2.75,1-4.33,4-4.24,2.49.07,5,0,7.48,0,3.78.07,4.83,2.43,4.48,5.69s-2.16,4.5-5.55,3.6a11.29,11.29,0,0,0-5.42-.11C88.49,125.77,87.77,123.36,88,119.69Z"/><path class="cls-5" d="M313.09,66.75c1.17,0,2.34.1,3.49,0,3.36-.35,5.07,1.13,5,4.49s-2,4.65-5.21,4.52a41.74,41.74,0,0,0-5.48.06c-3.66.34-5.89-1.17-6.05-4.86-.18-4,2.57-4.47,5.73-4.21C311.42,66.8,312.25,66.75,313.09,66.75Z"/><path class="cls-5" d="M284.58,66.63c6.88,0,8.19,1,7.33,5.89-.06.32,0,.73-.18,1-3.17,4.17-7.65,1.51-11.5,2.07-2.43.35-4-1.29-4.29-3.84-.33-3.06.34-5.34,4.15-5.1C281.58,66.73,283.08,66.63,284.58,66.63Z"/><path class="cls-6" d="M261.82,294.69v35c0,7.2,2.35,8.65,8.71,5.56,4.4-2.14,9.32.28,9.4,5.32.23,15.15.92,30.32-.38,45.43-.58,6.72-3.59,12.75-7.38,18.33-1.31,1.92-3.09,3.71-3.79,5.84-2.71,8.24-8.65,8-16.26,7.73-17.47-.54-35-.37-52.46,0-4.54.08-6.35-.47-7.67-4.53-3.53-10.86-10-20.94-10.46-32.6-.64-15-.39-30-.24-44.95,0-3.82,2.37-6.91,6.46-7,3.78-.06,6,2.48,6.4,6.34.35,3.25,1.4,6.2,5.31,5.81s4.4-3.5,4.4-6.72c0-2-.13-4,.06-6,.38-3.75,2.4-6.33,6.27-6.55s5.58,2.45,6.53,5.74c.22.78.1,1.66.28,2.47.53,2.37,1.88,3.87,4.47,3.85a4.18,4.18,0,0,0,4.58-4.26c.22-4,0-8,.14-12s1.53-7.43,6-7.92,6.51,2.38,7.05,6.59c.38,3,1.54,5.77,5.23,5.34,3.84-.44,4.41-3.5,4.41-6.7V259.35a22.37,22.37,0,0,1,.15-4.48c.63-3,2.36-5.17,5.64-5.48,3-.28,5,1.35,6.32,3.94.93,1.86.86,3.87.86,5.87Q261.82,276.94,261.82,294.69Z"/><path class="cls-7" d="M227,453.21c-10,0-20,.05-30,0-7.27,0-10.3-3-10.62-10.25a91.78,91.78,0,0,1,0-10.49c.46-6.72,3.47-9.54,10.26-9.56q30-.09,59.94,0c7.08,0,10.3,3.4,10.36,10.47v9c-.07,7.68-3.2,10.8-11,10.84C246.29,453.25,236.63,453.21,227,453.21Z"/><path class="cls-6" d="M271,271.94c0-6.15.27-12.31-.12-18.43-.19-3,.86-3.69,3.45-4,10.21-1.09,19.47,6.11,22.18,17.39,3.32,13.87-6.66,27.9-19.92,28.12-3.66.06-5.84-.64-5.51-5.19.43-5.95.11-11.95.11-17.93Z"/><path class="cls-6" d="M280,164.66c-47,0-94-1.06-141-.89-4.26,0-5.32-1.13-5.09-5.22.36-6.48,0-13,.12-19.49.15-8.45,5-13.21,13.48-13.21l265.49,1c8.39,0,13.25,4.17,13.7,12.48.4,7.47.05,15,.16,22.48,0,2.18-.71,3.06-2.87,2.87-1.16-.1-2.33,0-3.5,0Zm74.44-19.87c-.38-2.78-1.47-5-4.54-5.06-3.33-.08-4.84,2.16-4.83,5.12s1.6,5.11,4.95,4.94c3.1-.16,4.07-2.39,4.41-5Zm18.73,0c-.23-3-1.54-5.13-4.84-5-3,.11-4.35,2.11-4.35,5,0,3.12,1.42,5.14,4.75,5.05,3.07-.15,4.21-2.21,4.43-5.09Zm9.58.27c.28,2.56,1.36,4.68,4.45,4.76,3.33.09,4.75-1.92,4.75-5,0-2.89-1.35-4.89-4.34-5-3.31-.2-4.61,2-4.87,5.18Z"/><path class="cls-6" d="M340.55,294.9c-7.55.1-7.55.1-7.55-7.4a12.35,12.35,0,0,1,0-1.49c.43-3.53-1.73-9,1-10.2,4.28-1.85,9.81-1.26,14.65.11,3.89,1.1,6.27,5.93,5.65,10.56s-3,7.72-7.78,8.37A44.06,44.06,0,0,1,340.55,294.9Z"/><path class="cls-6" d="M333,257.09c0-7.61,0-7.61,5.91-7.61,7.77,0,11.23,2.49,11.06,8-.16,5.17-3.46,7.34-11.13,7.34C333,264.77,333,264.77,333,257.09Z"/><path class="cls-3" d="M354.43,144.79c-.34,2.61-1.31,4.84-4.42,5-3.35.17-4.93-1.94-4.95-4.94s1.5-5.2,4.83-5.12C353,139.8,354.05,142,354.43,144.79Z"/><path class="cls-3" d="M373.16,144.75c-.22,2.88-1.36,4.94-4.44,5-3.33.09-4.74-1.93-4.75-5.05,0-2.88,1.36-4.88,4.35-5C371.62,139.62,372.93,141.79,373.16,144.75Z"/><path class="cls-3" d="M382.74,145c.25-3.23,1.56-5.4,4.86-5.28,3,.11,4.35,2.11,4.34,5,0,3.12-1.42,5.13-4.75,5C384.1,149.7,383,147.58,382.74,145Z"/></svg>