<svg xmlns="http://www.w3.org/2000/svg" xmlns:xlink="http://www.w3.org/1999/xlink" width="1920" height="125"><defs><path id="A" d="M0 0h1920v125H0z"/></defs><clipPath id="B"><use xlink:href="#A"/></clipPath><g clip-path="url(#B)" fill="#fff"><path opacity=".3" d="M-3.633 118.576l1927.266 5.5-2.303-13.62S1710.288 14.78 1292.466 35.03c-407.495 19.75-694.948 81.006-944.362 66.084S-1.5 71.27-1.5 71.27l-2.132 47.306z"/><path opacity=".3" d="M-2.99 109.995V71.943c70.897-8.556 155.783-15.017 256.942-18.376 258.576-8.586 606.255-1.02 1047.67 40.99v20.62L-2.99 109.995z"/><path opacity=".5" d="M1923.633-.792v123.448L-1 122.472V.398c432.242 76.2 646.17 101.85 907.62 100.716C1030.35 100.578 1382 73.402 1923.633-.792z"/><path opacity=".2" d="M1923.633 118.294V71.96c-55.414-9.558-196.1-40.637-275.166-44.39-276.852-16.324-399.523 43.307-744.542 90.237V103.5l1019.708 14.794z"/><path opacity=".5" d="M1923.633 34.77v83.73H-.203V31.82c344.044 76.755 1444.022 98.072 1923.836 2.948z"/><path d="M1923.633 115.45V125L-1 124.816V53.7c137.283 16.318 304.338 69.807 545.224 53.82 374.652-24.866 1065.87-60.754 1379.41 7.94z"/></g></svg>