<?xml version="1.0" encoding="utf-8"?>
<!-- Generator: Adobe Illustrator 25.0.0, SVG Export Plug-In . SVG Version: 6.00 Build 0)  -->
<svg version="1.1" id="Capa_1" xmlns="http://www.w3.org/2000/svg" xmlns:xlink="http://www.w3.org/1999/xlink" x="0px" y="0px"
	 viewBox="0 0 167 167" style="enable-background:new 0 0 167 167;" xml:space="preserve">
<style type="text/css">
	.st0{fill:#FEFEFE;}
	.st1{fill:#562481;}
</style>
<path class="st0" d="M167.4,83.5c0,26.7,0,53.3,0.1,79.9c0,2.5-0.6,3.1-3.1,3.1c-53.6-0.1-107.3-0.1-160.9,0c-2.5,0-3.1-0.6-3.1-3.1
	c0.1-53.6,0.1-107.3,0-160.9c0-2.5,0.6-3.1,3.1-3.1c53.6,0.1,107.3,0.1,160.9,0c2.5,0,3.1,0.6,3.1,3.1
	C167.4,29.5,167.4,56.5,167.4,83.5z M129.9,86.5l0.5,1c-1.2,1-2.5,2-3.6,3.2c-10.4,10.3-20.7,20.7-31.1,31.1c-1.7,1.7-3.7,3.5-3,6.3
	c1,4.2,5.8,4.9,9.3,1.4c14.2-14.1,28.3-28.2,42.4-42.3c3.2-3.2,2.9-6.2-0.2-9.3c-14-14-28-28-42-42c-0.3-0.4-0.7-0.7-1.1-1
	c-2.4-1.8-5-2-7.1,0.1s-1.6,4.4,0.8,6.7C105.6,52,116.2,62.8,127,73.5c1.2,1,2.5,1.9,3.9,2.7l-1.1,1.3H127c-33,0-65.9,0-98.9,0
	c-3.5,0-6.6,0.4-6.6,5.2c0,5.2,3.7,3.8,6.3,3.8c32.5,0.1,64.9,0.1,97.4,0L129.9,86.5z"/>
<path class="st1" d="M129.9,86.5h-4.8c-32.5,0-64.9,0-97.4,0c-2.6,0-6.4,1.4-6.3-3.8c0-4.8,3.2-5.2,6.6-5.2c33,0,65.9,0,98.9,0h2.8
	l1.1-1.3c-1.4-0.8-2.7-1.7-3.9-2.7c-10.8-10.7-21.4-21.5-32.2-32c-2.3-2.3-3-4.5-0.8-6.7s4.7-1.8,7.1-0.1c0.4,0.3,0.7,0.7,1.1,1
	c14,14,28,28,42,42c3.1,3.1,3.4,6.1,0.2,9.3c-14.1,14-28.2,28.1-42.4,42.2c-3.5,3.5-8.3,2.8-9.3-1.4c-0.7-2.8,1.3-4.6,3-6.3
	c10.3-10.4,20.7-20.7,31.1-31.1c1.1-1.1,2.4-2.1,3.6-3.2L129.9,86.5z"/>
</svg>
