<svg id="Capa_1" data-name="Capa 1" xmlns="http://www.w3.org/2000/svg" viewBox="0 0 549 97.71"><defs><style>.cls-1{fill:#fdfdff;}.cls-2{fill:#fff;}.cls-3{fill:#fcfcfc;}.cls-4{fill:#f9f9f9;}</style></defs><path class="cls-1" d="M4.8,51.68c0-14.26,9.05-23.28,19.6-23.28,5.3,0,8.9,2,13.32,5.43l-.22-8.11V7.5h4.06V73.68H38.12L37.68,68h-.2c-3.63,3.63-8.54,6.83-14.41,6.83C12,74.79,4.8,66.58,4.8,51.68ZM37.5,63.9V37.69C32.84,33.56,29,32,24.62,32,15.84,32,9.07,40.58,9.07,51.66c0,11.76,5.23,19.52,14.59,19.52C28.54,71.18,32.86,68.62,37.5,63.9Z"/><path class="cls-1" d="M54.81,51.68c0-14.41,9.37-23.28,19.27-23.28C84.55,28.4,91,35.85,91,48.84a18.54,18.54,0,0,1-.23,3.32H59c.15,11.15,6.68,19.11,16.63,19.11a19.87,19.87,0,0,0,11.87-3.92l1.67,3.1c-3.47,2.17-7.45,4.34-13.92,4.34C64,74.79,54.81,66.12,54.81,51.68Zm32.35-2.87c0-11.28-5.12-16.89-13-16.89-7.47,0-14.22,6.33-15.14,16.89Z"/><path class="cls-1" d="M97.46,68.68l2.36-3c3.73,3.12,7.75,5.59,14,5.59,7,0,10.56-4.07,10.56-8.72,0-5.54-5.72-8-10.82-9.81-6.66-2.36-14.08-5.08-14.08-12.62,0-6.37,5-11.76,14.24-11.76A20.75,20.75,0,0,1,126.39,33l-2.19,2.93c-3-2.23-6.12-4-10.55-4-6.89,0-10,4-10,8,0,5,5.21,7,10.47,8.94,6.85,2.61,14.43,4.86,14.43,13.47,0,6.66-5.32,12.46-14.89,12.46A25.24,25.24,0,0,1,97.46,68.68Z"/><path class="cls-1" d="M138.64,15.23a3.7,3.7,0,0,1,7.4,0,3.7,3.7,0,0,1-7.4,0Zm1.58,14.28h4.07V73.68h-4.07Z"/><path class="cls-1" d="M161.29,29.51h3.44l.44,8.24h.21c3-5.43,7.31-9.35,12.56-9.35a9.31,9.31,0,0,1,4.38.92L181.4,33a9.94,9.94,0,0,0-4-.73c-4,0-8.69,3-12,11.37v30h-4.07Z"/><path class="cls-1" d="M185.82,51.68c0-14.41,9.36-23.28,19.26-23.28,10.47,0,16.91,7.45,16.91,20.44a19.51,19.51,0,0,1-.23,3.32H190c.15,11.15,6.68,19.11,16.64,19.11a19.86,19.86,0,0,0,11.86-3.92l1.68,3.1c-3.48,2.17-7.45,4.34-13.93,4.34C195,74.79,185.82,66.12,185.82,51.68Zm32.34-2.87c0-11.28-5.11-16.89-13-16.89-7.47,0-14.22,6.33-15.14,16.89Z"/><path class="cls-1" d="M245.28,22.5H227.92v-9h45.4v9H256V73.68H245.28Z"/><path class="cls-1" d="M332.57,13.52h11l5.22,30.39c1,6.41,2,12.81,3,19.21h.37c1.25-6.4,2.58-12.86,3.9-19.21l7.4-30.39h9.27l7.4,30.39c1.32,6.24,2.65,12.75,4,19.21h.37c1-6.46,1.93-12.91,2.91-19.21l5.22-30.39h10.23L391.23,73.68H378L370.55,42c-1-4.67-1.88-9.27-2.65-13.84h-.37c-.83,4.57-1.73,9.17-2.72,13.84l-7.29,31.68h-13Z"/><path class="cls-1" d="M466.45,28.5h8.68l.81,8h.3c3.22-5.88,8-9.16,12.84-9.16a11.56,11.56,0,0,1,5.11.92l-1.84,9.2a15.33,15.33,0,0,0-4.63-.73c-3.61,0-8,2.46-10.67,9.34V73.68h-10.6Z"/><path class="cls-1" d="M500.76,8.7h10.38V49.29h.29L528.18,28.5h11.59L524.28,46.89l17.07,26.79H529.83L518.21,54.07l-7.07,8.13V73.68H500.76Z"/><path class="cls-2" d="M297.21,73.75A22.13,22.13,0,0,0,309.05,71c9.8-5.17,13.55-15.82,8.93-25.22-.23-.48-.52-1-.72-1.44a1,1,0,0,1,.3-1.38.66.66,0,0,1,.24-.11,1.28,1.28,0,0,1,1.74.45,17.36,17.36,0,0,1,3,7.68c1.44,9.64-4.13,18.84-13.94,23.09-13.79,6-31.7-.88-35.17-14.66A21.78,21.78,0,0,1,284.5,34.79c1.44-.8,2.3-1.51,2.58-3.14.5-2.9,3.68-5.13,6.92-5.35,3.58-.24,6.62,1.24,7.88,3.86a2.79,2.79,0,0,1,.4,1.12c0,1,.62,1.27,1.55,1.53a12.8,12.8,0,0,1,6.1,3.59c2.05,2.19,1.73,4.67-.84,6.36-.47.32-1,.59-1.47.88a8.89,8.89,0,0,0-4.74,7.43c-.19,2.65.47,5.22.76,7.83a16.94,16.94,0,0,1-1.28,9.5A12.6,12.6,0,0,1,297.21,73.75Zm-5.66-1.22c3.8,0,5.95-1.27,7.5-3.44,2.09-2.93,2.26-6.18,1.94-9.5-.21-2.17-.74-4.31-.83-6.5-.15-3.68.73-7,3.79-9.73a17.57,17.57,0,0,1,3.33-2.19c2-1.1,2.12-2.26.44-3.73a13.17,13.17,0,0,0-6.24-2.77c-1.28-.26-1.5-.48-1.58-1.63a4.63,4.63,0,0,0-4.33-4.21c-2.67-.25-5.1,1.09-5.78,3.23-.62,1.93.11,3.56,1.49,5,.43.46.7,1,.17,1.47a1.33,1.33,0,0,1-1.68.07,5,5,0,0,1-2.13-2c-.23-.42-.43-.43-.84-.2a21.64,21.64,0,0,0-3.25,2,19.18,19.18,0,0,0-7.85,14.23,17.85,17.85,0,0,0,7.82,16.66A15.06,15.06,0,0,0,291.55,72.53Z"/><path class="cls-3" d="M297.71,41.68a3,3,0,0,1-3-3,.22.22,0,0,1,0-.08,2.94,2.94,0,0,1,3-2.93h.14a3,3,0,1,1-.1,6Z"/><path class="cls-4" d="M432,73.16a22.11,22.11,0,0,0,11.84-2.74c9.8-5.16,13.55-15.82,8.93-25.22-.24-.48-.52-1-.72-1.44a1,1,0,0,1,.31-1.38l.23-.11a1.3,1.3,0,0,1,1.74.46,17.37,17.37,0,0,1,3,7.67c1.45,9.64-4.13,18.84-13.94,23.09-13.78,6-31.7-.88-35.17-14.66a21.82,21.82,0,0,1,11.07-24.66c1.45-.79,2.31-1.51,2.59-3.14.5-2.9,3.67-5.13,6.92-5.35,3.57-.24,6.62,1.25,7.88,3.86a2.79,2.79,0,0,1,.4,1.12c0,1,.61,1.27,1.55,1.53a12.83,12.83,0,0,1,6.14,3.54c2.05,2.19,1.72,4.67-.84,6.37-.48.31-1,.58-1.47.87a8.93,8.93,0,0,0-4.79,7.45c-.18,2.65.47,5.23.77,7.84a16.86,16.86,0,0,1-1.28,9.58A12.55,12.55,0,0,1,432,73.16Zm-5.65-1.22c3.8,0,5.94-1.26,7.5-3.44,2.09-2.92,2.26-6.18,1.93-9.5-.21-2.17-.73-4.31-.82-6.5-.15-3.68.72-7,3.78-9.73a19,19,0,0,1,3.34-2.19c2-1.1,2.12-2.26.44-3.73a13.22,13.22,0,0,0-6.24-2.77c-1.29-.26-1.5-.48-1.58-1.63a4.63,4.63,0,0,0-4.33-4.21c-2.67-.25-5.1,1.09-5.79,3.23-.61,1.93.11,3.56,1.5,5,.43.46.69,1,.17,1.48a1.33,1.33,0,0,1-1.69.06,5.07,5.07,0,0,1-2.13-2c-.23-.42-.42-.42-.84-.2a23,23,0,0,0-3.24,2A19.14,19.14,0,0,0,410.54,52a17.87,17.87,0,0,0,7.81,16.67A15.11,15.11,0,0,0,426.39,71.94Z"/><path class="cls-4" d="M432.55,41.09a3,3,0,0,1-3-3V38a2.94,2.94,0,0,1,2.95-2.93h.13a3,3,0,0,1,2.92,3.08v0A3,3,0,0,1,432.55,41.09Z"/></svg>