<svg id="Capa_1" data-name="Capa 1" xmlns="http://www.w3.org/2000/svg" viewBox="0 0 512 512"><defs><style>.cls-1{fill:#fffdfd;}</style></defs><path class="cls-1" d="M300.28,136.88H457.13a7.51,7.51,0,0,0,0-15H300.28a7.51,7.51,0,1,0,0,15Z"/><path class="cls-1" d="M464.64,177.21a7.52,7.52,0,0,0-7.51-7.52H300.28a7.52,7.52,0,0,0,0,15H457.13A7.51,7.51,0,0,0,464.64,177.21Z"/><path class="cls-1" d="M369.79,217.52H300.28a7.52,7.52,0,0,0,0,15h69.51a7.52,7.52,0,1,0,0-15Z"/><path class="cls-1" d="M473.49,48h-267A133.62,133.62,0,0,0,39.08,65.52c-52.11,52.1-52.11,136.89,0,189,1.32,1.33,2.68,2.61,4.05,3.87V336a38.55,38.55,0,0,0,38.51,38.5H226.52L216.2,419.11H203.91a49.52,49.52,0,0,0-49.46,49.46,17,17,0,0,0,17,17H383.66a17,17,0,0,0,17-17,49.52,49.52,0,0,0-49.46-49.46H338.94l-10.33-44.59H473.49A38.54,38.54,0,0,0,512,336V86.55A38.55,38.55,0,0,0,473.49,48Zm-340-6.63c99,0,154.68,114.52,93.24,192.12a118.66,118.66,0,0,1-177,10.36C-25,169.2,28.68,41.41,133.44,41.41ZM238.49,285.74l20.81-20.82.1-.09a1.62,1.62,0,0,1,2.3,0L324,327.15a16.48,16.48,0,0,1-23.31,23.31l-62.32-62.32a1.63,1.63,0,0,1,0-2.31l.09-.09Zm-5.31-15.94-10.33-10.33A136,136,0,0,0,233,249.28l10.32,10.33Zm-99.74,23.83a134,134,0,0,0,77.61-24.71l12.74,12.74a16.63,16.63,0,0,0,4,17.1l9.39,9.39h-179V270.33A132.84,132.84,0,0,0,133.44,293.63ZM58.16,336V323.18h194l36.32,36.31H81.64A23.5,23.5,0,0,1,58.16,336Zm327.5,132.56a2,2,0,0,1-2,2H171.47a2,2,0,0,1-2-2,34.48,34.48,0,0,1,34.44-34.44h147.3a34.48,34.48,0,0,1,34.44,34.44Zm-62.15-49.46H231.62L242,374.52h71.24Zm150-59.62H336.11a31.55,31.55,0,0,0,3.61-36.31H388.8a7.52,7.52,0,0,0,0-15H326.27l-53.94-53.94a16.54,16.54,0,0,0-11.78-4.88,16.75,16.75,0,0,0-5.34.88l-12.72-12.72a133.56,133.56,0,0,0-14.41-172c-.84-.84-1.69-1.65-2.54-2.45h248A23.5,23.5,0,0,1,497,86.55v221.6H421.16a7.52,7.52,0,0,0,0,15H497V336a23.5,23.5,0,0,1-23.48,23.48Z"/><path class="cls-1" d="M133.58,266.32A106.31,106.31,0,1,0,28.5,143.86a7.51,7.51,0,1,0,14.85,2.27,91.28,91.28,0,1,1,159.56,73.23A30.36,30.36,0,0,0,188.2,205.9c-7.71-3.4-20.35-5.63-30.34-7l0-7.75a40.89,40.89,0,0,0,15.86-25.93,13,13,0,0,0,3.83-2.67,12.73,12.73,0,0,0,3.71-9.1c0-7.76,0-21.56,0-21.69V120.59a17.5,17.5,0,0,0-14.06-17.13,17.49,17.49,0,0,0-17-13.63H117A31.62,31.62,0,0,0,85.4,121.42v32.21a12.78,12.78,0,0,0,7.46,11.6A40.92,40.92,0,0,0,108,190.6l0,8.55c-10,1.42-22.59,3.75-30.27,7.21A29.62,29.62,0,0,0,64,219.05a90.57,90.57,0,0,1-20.3-43.3,7.51,7.51,0,1,0-14.8,2.58,106.32,106.32,0,0,0,104.73,88ZM117,104.85h33.09a2.44,2.44,0,0,1,2.44,2.43,10.87,10.87,0,0,0,10.87,10.87h.33a2.44,2.44,0,0,1,2.44,2.44v3l-7.57-.71a38.88,38.88,0,0,0-23.77,5.52,23.61,23.61,0,0,1-12.32,3.48H100.43V121.42A16.58,16.58,0,0,1,117,104.85Zm-16.56,46.79v-4.79h22.06a38.57,38.57,0,0,0,20.17-5.69,23.81,23.81,0,0,1,14.53-3.37l9,.85c0,4,0,8.94,0,13a9.17,9.17,0,0,0-7,8.37,26,26,0,0,1-51.82,0A9.23,9.23,0,0,0,100.43,151.64Zm32.86,47.73a41.26,41.26,0,0,0,9.55-1.13v3a12.35,12.35,0,0,0,1,4.74A20.35,20.35,0,0,1,133,209.12h-.06a20.3,20.3,0,0,1-10.77-3.07,12.41,12.41,0,0,0,.93-4.75l0-3.24a40.9,40.9,0,0,0,10.25,1.31ZM83.92,220.06c4.49-2,13.47-4.14,24.46-5.78a35.18,35.18,0,0,0,24.52,9.87h.1a35.21,35.21,0,0,0,24.63-10.08c11,1.55,20,3.59,24.52,5.58a15,15,0,0,1,9,11.19,91.28,91.28,0,0,1-115.62-.36,14.81,14.81,0,0,1,8.37-10.42Z"/></svg>